<svg xmlns="http://www.w3.org/2000/svg" viewBox="0 0 972.64 158.64"><title>hor bn</title><g id="Capa_2" data-name="Capa 2"><g id="Capa_2-2" data-name="Capa 2"><path d="M35.57,6.75V126.32H0V6.75Zm68.24,0L72.27,61l31.36,65.35H63.69l-27.07-66L67.28,6.75Z"/><path d="M146,39v87.34H113.27V39ZM129.74,0a16,16,0,0,1,11.51,4.69,14.86,14.86,0,0,1,4.87,11.08A14.83,14.83,0,0,1,141.52,27,18,18,0,0,1,118,27a14.83,14.83,0,0,1-4.6-11.21,14.86,14.86,0,0,1,4.87-11.08A16,16,0,0,1,129.74,0Z"/><path d="M196.14,158.64H163.37V85.76q0-20.06,10.51-32.67a43,43,0,0,1,15.38-11.57,45.36,45.36,0,0,1,19.14-4.29q19.53,0,32.94,13.14a43.42,43.42,0,0,1,13.4,32.24,44.08,44.08,0,0,1-13.32,32.06q-13.3,13.49-31.53,13.49-3,0-8.76-.62V91.45a12.85,12.85,0,0,0,8.06,3.24,11.68,11.68,0,0,0,8.71-3.76A12.41,12.41,0,0,0,221.54,82a11.79,11.79,0,0,0-3.77-8.8,12.55,12.55,0,0,0-9-3.64q-12.62,0-12.61,17.44Z"/><path d="M301.87,39v87.34H269.11V39ZM285.57,0a16,16,0,0,1,11.52,4.69A14.86,14.86,0,0,1,302,15.77,14.83,14.83,0,0,1,297.36,27a18,18,0,0,1-23.57,0,14.83,14.83,0,0,1-4.6-11.21,14.86,14.86,0,0,1,4.87-11.08A16,16,0,0,1,285.57,0Z"/><path d="M632.66,3.1V46.17a25.44,25.44,0,0,0-7.53-1.67,11.77,11.77,0,0,0-8.75,3.77,12.58,12.58,0,0,0-3.65,9.08q0,4.53,4,11.51l3.44,6q9.3,16.16,9.3,31.22a50.13,50.13,0,0,1-15.67,37.3q-15.66,15.28-38.25,15.28a50.22,50.22,0,0,1-21.48-5V109.93q6.42,4.09,11.41,4.1a14.5,14.5,0,0,0,9.79-3.38,10.7,10.7,0,0,0,3.93-8.47q0-3.32-6.31-14.5Q562.8,70,562.8,52.25q0-21.36,15.22-36.81T614.39,0A55.48,55.48,0,0,1,632.66,3.1Z"/><path d="M845.54,69v43.4H827.06v42.51H785.65V61.11q0-15.82,5.43-27A56.51,56.51,0,0,1,812,10.79q14-9,29.17-9l4.42.11v43.4c-1-.07-1.66-.11-2.1-.11q-7.86,0-12.12,5.2t-4.26,14.84V69Z"/><path d="M972.19,106.39H909.42a29,29,0,0,1,.56-19.6h21q-2.22-12.29-13.84-12.28a15,15,0,0,0-12.62,6.58q-4.87,6.6-4.87,16.89,0,10.72,4.71,17.38T916.73,122q6.19,0,11.95-6.2l23.59,28.34a57.91,57.91,0,0,1-36.65,13q-24.57,0-41.29-16.49T857.61,99.75q0-24.25,16.88-41T916,42.07q24,0,40.36,16.33t16.33,40.24C972.64,100.26,972.49,102.85,972.19,106.39Z"/><path d="M686.52,116.85l22.13,5.65a3.88,3.88,0,0,0,3.77-1.06l16-16.34a3.94,3.94,0,0,0,1-3.79l-6.18-22a3.89,3.89,0,0,0-2.8-2.73l-22.13-5.65a3.9,3.9,0,0,0-3.77,1l-16,16.34a3.92,3.92,0,0,0-1,3.8l6.17,22A3.93,3.93,0,0,0,686.52,116.85Z"/><path d="M714.65,154.62h-11.2a57.71,57.71,0,0,1-36.85-13.23l13.67-14a3.8,3.8,0,0,1,3.67-1l22.41,5.72a3.8,3.8,0,0,1,2.73,2.67Z"/><path d="M740.3,52,726.64,66a3.81,3.81,0,0,1-3.67,1l-22.42-5.72a3.82,3.82,0,0,1-2.72-2.67l-5.29-18.82a56.85,56.85,0,0,1,10.91-1A57.67,57.67,0,0,1,740.3,52Z"/><path d="M761.36,116.52v36.61a1.49,1.49,0,0,1-.42,1h0a1.51,1.51,0,0,1-1.07.45H725l-.27-.2-6.25-22.28a3.81,3.81,0,0,1,.94-3.69l16.17-16.55a3.8,3.8,0,0,1,3.67-1Z"/><path d="M687.52,65,671.35,81.53a3.84,3.84,0,0,1-3.67,1l-18.95-4.83a58.14,58.14,0,0,1,34.45-35.28l5.28,18.84A3.81,3.81,0,0,1,687.52,65Z"/><path d="M761.36,96.71v9.78l-19.74-5a3.81,3.81,0,0,1-2.72-2.65l-6.25-22.28a3.81,3.81,0,0,1,.94-3.7l13.66-14A57.65,57.65,0,0,1,761.36,96.71Z"/><path d="M673.31,120.62l-13.66,14a57.66,57.66,0,0,1-14.11-37.88,57,57,0,0,1,.8-9.57L665.28,92A3.84,3.84,0,0,1,668,94.64l6.24,22.28A3.83,3.83,0,0,1,673.31,120.62Z"/><path d="M451.08,66.91,440.35,56.2a2.5,2.5,0,0,1-.65-2.41l3.92-14.65a2.48,2.48,0,0,1,1.28-1.58,42.56,42.56,0,0,1,24.81,24.78,2.5,2.5,0,0,1-1.58,1.29l-14.64,3.93A2.5,2.5,0,0,1,451.08,66.91Z"/><path d="M460.84,103.25,450.11,92.54a2.5,2.5,0,0,1-.65-2.41l3.91-14.65a2.53,2.53,0,0,1,1.77-1.77l14.64-3.94a2.54,2.54,0,0,1,2,.34A42.4,42.4,0,0,1,463,104,2.52,2.52,0,0,1,460.84,103.25Z"/><path d="M414.73,57.2,404,46.48a2.47,2.47,0,0,1-.7-2.14A42.24,42.24,0,0,1,430,34.87a42.76,42.76,0,0,1,7.12.6,2.48,2.48,0,0,1,.33,2l-3.91,14.65a2.51,2.51,0,0,1-1.77,1.77l-14.64,3.93A2.5,2.5,0,0,1,414.73,57.2Z"/><path d="M388.13,83.82l-.53-.54v-6a42.25,42.25,0,0,1,9.68-27,2.53,2.53,0,0,1,2.22.69l10.72,10.72a2.47,2.47,0,0,1,.65,2.41L407,78.77a2.52,2.52,0,0,1-1.77,1.76l-14.64,3.94A2.52,2.52,0,0,1,388.13,83.82Z"/><path d="M404.46,119.69h-12.4a4.46,4.46,0,0,1-4.46-4.46V103l2.83-10.62a2.5,2.5,0,0,1,1.77-1.76l14.64-3.94a2.49,2.49,0,0,1,2.41.65L420,98.05a2.5,2.5,0,0,1,.65,2.41l-3.91,14.65a2.48,2.48,0,0,1-1.77,1.76Z"/><path d="M430,119.69h-6l-.53-.53a2.5,2.5,0,0,1-.65-2.41l3.92-14.65a2.48,2.48,0,0,1,1.76-1.76L443.2,96.4a2.5,2.5,0,0,1,2.41.64l10.72,10.72A2.49,2.49,0,0,1,457,110,42.22,42.22,0,0,1,430,119.69Z"/><path d="M424.52,93.43,413.87,82.79a2.5,2.5,0,0,1-.65-2.41l3.89-14.53a2.49,2.49,0,0,1,1.76-1.78l14.54-3.9a2.52,2.52,0,0,1,2.41.64l10.64,10.64a2.5,2.5,0,0,1,.65,2.41L443.23,88.4a2.53,2.53,0,0,1-1.77,1.77l-14.53,3.9A2.52,2.52,0,0,1,424.52,93.43Z"/><path d="M485.27,64.87a55.55,55.55,0,0,0-6.25-16,13.41,13.41,0,0,0,6.31-3.55l12.51-12.52A17.72,17.72,0,0,0,472.78,7.72L460.26,20.23a13.33,13.33,0,0,0-3.69,7,56.1,56.1,0,0,0-18-5.92A28.86,28.86,0,0,0,410.76,0H351.67a28.86,28.86,0,0,0,28.86,28.86h20.36a56.56,56.56,0,0,0-24.32,30.51,28.86,28.86,0,0,0-28,28.85v40.67a28.83,28.83,0,0,0,25.14-14.69v10.42a9,9,0,0,0,8.95,8.94h10.24a28.85,28.85,0,0,0-14.58,25.08H419a28.85,28.85,0,0,0,28.84-27.9,56.52,56.52,0,0,0,30.52-24.24v16.62A28.87,28.87,0,0,0,507.22,152V92.89A28.86,28.86,0,0,0,485.27,64.87Zm-21,46.3a48,48,0,0,1-34.05,14.1H386.25A4.23,4.23,0,0,1,382,121V77.12A48.14,48.14,0,0,1,461.6,40.65c.9.77,1.77,1.58,2.62,2.42s1.59,1.65,2.34,2.52l0,0a48.16,48.16,0,0,1-2.36,65.56Z"/></g></g></svg>