<svg xmlns="http://www.w3.org/2000/svg" viewBox="0 0 385.32 385.32"><title>Recurso 11</title><g id="Capa_2" data-name="Capa 2"><g id="Capa_3" data-name="Capa 3"><path d="M249,162.52l-26.06-26a6.09,6.09,0,0,1-1.58-5.86l9.51-35.58A6,6,0,0,1,234,91.23a103.32,103.32,0,0,1,60.25,60.18,6,6,0,0,1-3.82,3.13l-35.57,9.56A6.06,6.06,0,0,1,249,162.52Z"/><path d="M272.66,250.78l-26.05-26A6.07,6.07,0,0,1,245,218.9l9.51-35.58a6.09,6.09,0,0,1,4.29-4.29l35.57-9.56a6.08,6.08,0,0,1,4.92.81,103.18,103.18,0,0,1-21.47,82.22A6.1,6.1,0,0,1,272.66,250.78Z"/><path d="M160.67,138.93l-26-26a6,6,0,0,1-1.7-5.2,103.16,103.16,0,0,1,82.17-21.55,6.09,6.09,0,0,1,.8,4.91l-9.51,35.58a6.06,6.06,0,0,1-4.29,4.3l-35.56,9.55A6.08,6.08,0,0,1,160.67,138.93Z"/><path d="M96.08,203.58l-1.3-1.3V187.71a102.59,102.59,0,0,1,23.53-65.53,6.08,6.08,0,0,1,5.37,1.68l26.06,26a6.08,6.08,0,0,1,1.58,5.85l-9.51,35.58a6.11,6.11,0,0,1-4.29,4.3L102,205.16A6.08,6.08,0,0,1,96.08,203.58Z"/><path d="M135.73,290.71H105.62a10.84,10.84,0,0,1-10.84-10.84V250.18l6.89-25.79a6.07,6.07,0,0,1,4.29-4.3l35.57-9.55a6,6,0,0,1,5.85,1.58l26.06,26A6.1,6.1,0,0,1,175,244l-9.51,35.58a6.06,6.06,0,0,1-4.29,4.29Z"/><path d="M197.79,290.71H183.32L182,289.43a6.11,6.11,0,0,1-1.58-5.86L190,248a6.07,6.07,0,0,1,4.3-4.29l35.56-9.56a6.11,6.11,0,0,1,5.86,1.57l26.05,26a6,6,0,0,1,1.67,5.38A102.58,102.58,0,0,1,197.79,290.71Z"/><path d="M184.45,226.93,158.6,201.09a6.06,6.06,0,0,1-1.58-5.86l9.43-35.3a6.09,6.09,0,0,1,4.29-4.3l35.3-9.48a6.1,6.1,0,0,1,5.86,1.56l25.85,25.84a6.06,6.06,0,0,1,1.58,5.85l-9.43,35.3a6.09,6.09,0,0,1-4.29,4.31l-35.3,9.48A6.11,6.11,0,0,1,184.45,226.93Z"/><path d="M332,157.56a136.23,136.23,0,0,0-15.18-38.92A32.55,32.55,0,0,0,332.15,110l30.41-30.41a43.05,43.05,0,0,0-60.89-60.88l-30.4,30.41a32.4,32.4,0,0,0-9,17,135.89,135.89,0,0,0-43.6-14.37A70.11,70.11,0,0,0,151,0H7.52A70.09,70.09,0,0,0,77.61,70.09h49.45A137.39,137.39,0,0,0,68,144.21,70.1,70.1,0,0,0,0,214.27v98.79a70,70,0,0,0,61.08-35.69v25.32a21.73,21.73,0,0,0,21.73,21.72h24.86a70.06,70.06,0,0,0-35.4,60.91h98.78a70.1,70.1,0,0,0,70.06-67.78,137.49,137.49,0,0,0,74.13-58.86V299a70.09,70.09,0,0,0,70.08,70.1V225.61A70.09,70.09,0,0,0,332,157.56ZM280.87,270a116.61,116.61,0,0,1-82.7,34.25H91.51A10.29,10.29,0,0,1,81.22,294V187.32a117,117,0,0,1,193.3-88.6q3.28,2.82,6.35,5.9t5.69,6.11s0,0,.05,0A117,117,0,0,1,280.87,270Z"/></g></g></svg>