<svg xmlns="http://www.w3.org/2000/svg" viewBox="0 0 524.16 250"><defs><style>.cls-1{fill:#32b4d1;}.cls-2{fill:#32d2ba;}.cls-3{fill:#32d285;}</style></defs><title>Vertical</title><g id="Capa_2" data-name="Capa 2"><g id="Capa_1-2" data-name="Capa 1"><path class="cls-1" d="M30.19,4.89V91.65H4.39V4.89Zm49.51,0L56.82,44.23,79.57,91.65h-29L31,43.73,53.2,4.89Z"/><path class="cls-1" d="M110.33,28.28V91.65H86.56V28.28ZM98.51,0a11.63,11.63,0,0,1,8.36,3.4,10.82,10.82,0,0,1,3.53,8,10.74,10.74,0,0,1-3.34,8.13,13.08,13.08,0,0,1-17.1,0,10.73,10.73,0,0,1-3.33-8.13,10.81,10.81,0,0,1,3.52-8A11.63,11.63,0,0,1,98.51,0Z"/><path class="cls-1" d="M146.68,115.1H122.92V62.22q0-14.55,7.62-23.71a31.34,31.34,0,0,1,11.16-8.39,33.94,33.94,0,0,1,37.78,6.42,31.51,31.51,0,0,1,9.72,23.39,32,32,0,0,1-9.66,23.26A31,31,0,0,1,156.66,93q-2.16,0-6.35-.44V66.35a9.32,9.32,0,0,0,5.84,2.35A8.49,8.49,0,0,0,162.48,66a9,9,0,0,0,2.64-6.48,8.57,8.57,0,0,0-2.74-6.39,9.08,9.08,0,0,0-6.54-2.64q-9.15,0-9.16,12.65Z"/><path class="cls-1" d="M223.4,28.28V91.65H199.63V28.28ZM211.57,0a11.63,11.63,0,0,1,8.36,3.4,10.82,10.82,0,0,1,3.53,8,10.71,10.71,0,0,1-3.34,8.13,13.07,13.07,0,0,1-17.09,0,10.71,10.71,0,0,1-3.34-8.13,10.82,10.82,0,0,1,3.53-8A11.6,11.6,0,0,1,211.57,0Z"/><path class="cls-1" d="M45.12,160.71v24.72a14.45,14.45,0,0,0-4.32-1,6.76,6.76,0,0,0-5,2.17,7.19,7.19,0,0,0-2.1,5.21c0,1.73.77,3.94,2.29,6.61l2,3.43q5.34,9.29,5.34,17.92a28.8,28.8,0,0,1-9,21.42,30.27,30.27,0,0,1-22,8.77A28.77,28.77,0,0,1,0,247.14V222a12.67,12.67,0,0,0,6.55,2.35,8.33,8.33,0,0,0,5.62-1.94,6.15,6.15,0,0,0,2.26-4.86q0-1.91-3.63-8.33A40.88,40.88,0,0,1,5,188.92a29.05,29.05,0,0,1,8.74-21.13,28.27,28.27,0,0,1,20.88-8.86A31.74,31.74,0,0,1,45.12,160.71Z"/><path class="cls-1" d="M167.34,198.52v24.91H156.73v24.41H133V194a35.22,35.22,0,0,1,3.11-15.51,32.55,32.55,0,0,1,12-13.38,30.51,30.51,0,0,1,16.75-5.18l2.54.07v24.91c-.55,0-1-.06-1.21-.06a8.48,8.48,0,0,0-7,3c-1.63,2-2.44,4.83-2.44,8.52v2.16Z"/><path class="cls-1" d="M240.05,220H204a17.43,17.43,0,0,1-.82-5,17.69,17.69,0,0,1,1.14-6.23H216.4q-1.26-7-7.94-7.05a8.61,8.61,0,0,0-7.24,3.78,15.83,15.83,0,0,0-2.8,9.69q0,6.17,2.7,10a8.31,8.31,0,0,0,7.09,3.81c2.37,0,4.66-1.18,6.86-3.56l13.54,16.27a33.26,33.26,0,0,1-21,7.44,32.45,32.45,0,0,1-23.71-9.47,33.43,33.43,0,0,1,.1-47,32.54,32.54,0,0,1,23.8-9.59,32,32,0,0,1,32.54,32.47C240.3,216.49,240.22,218,240.05,220Z"/><path class="cls-2" d="M77,226.25,87.82,229a3.9,3.9,0,0,0,3.77-1l7.82-8a3.9,3.9,0,0,0,1-3.79l-3-10.77a3.93,3.93,0,0,0-2.81-2.74l-10.84-2.77a3.91,3.91,0,0,0-3.77,1.06l-7.81,8a3.91,3.91,0,0,0-1,3.8l3,10.77A3.92,3.92,0,0,0,77,226.25Z"/><path class="cls-2" d="M92.2,247.69H85.77a33.1,33.1,0,0,1-21.16-7.6l7.85-8a2.15,2.15,0,0,1,2.1-.59l12.87,3.28A2.21,2.21,0,0,1,89,236.29Z"/><path class="cls-2" d="M106.92,188.8l-7.84,8a2.21,2.21,0,0,1-2.11.6L84.1,194.13a2.14,2.14,0,0,1-1.56-1.53l-3-10.81a33.31,33.31,0,0,1,27.42,7Z"/><path class="cls-2" d="M119,225.82v21a.87.87,0,0,1-.24.6h0a.85.85,0,0,1-.62.26h-20l-.15-.11-3.59-12.79a2.2,2.2,0,0,1,.54-2.12l9.28-9.51a2.23,2.23,0,0,1,2.11-.59Z"/><path class="cls-2" d="M76.62,196.23l-9.28,9.5a2.2,2.2,0,0,1-2.11.59l-10.88-2.77A33.32,33.32,0,0,1,74.13,183.3l3,10.81A2.18,2.18,0,0,1,76.62,196.23Z"/><path class="cls-2" d="M119,214.45v5.61l-11.33-2.9a2.18,2.18,0,0,1-1.56-1.52l-3.59-12.79a2.2,2.2,0,0,1,.54-2.13l7.84-8A33.1,33.1,0,0,1,119,214.45Z"/><path class="cls-2" d="M68.46,228.17l-7.84,8A33.2,33.2,0,0,1,53,209l10.87,2.78a2.19,2.19,0,0,1,1.57,1.53L69,226.05A2.16,2.16,0,0,1,68.46,228.17Z"/><path class="cls-3" d="M435.71,105.47l-16.9-16.88a3.93,3.93,0,0,1-1-3.8L424,61.71a3.92,3.92,0,0,1,2-2.48,67.09,67.09,0,0,1,39.09,39,3.91,3.91,0,0,1-2.49,2l-23.07,6.2A3.92,3.92,0,0,1,435.71,105.47Z"/><path class="cls-3" d="M451.08,162.73l-16.9-16.88a3.94,3.94,0,0,1-1-3.8L439.32,119a4,4,0,0,1,2.79-2.79L465.18,110a3.89,3.89,0,0,1,3.19.52,66.83,66.83,0,0,1-13.92,53.33A4,4,0,0,1,451.08,162.73Z"/><path class="cls-3" d="M378.43,90.17l-16.9-16.88a3.93,3.93,0,0,1-1.1-3.38,66.79,66.79,0,0,1,53.3-14,3.91,3.91,0,0,1,.52,3.18L408.08,82.2A3.94,3.94,0,0,1,405.3,85l-23.07,6.2A3.94,3.94,0,0,1,378.43,90.17Z"/><path class="cls-3" d="M336.53,132.11l-.84-.84v-9.46A66.54,66.54,0,0,1,351,79.31a4,4,0,0,1,3.49,1.08l16.9,16.88a3.93,3.93,0,0,1,1,3.8l-6.16,23.08a4,4,0,0,1-2.79,2.79l-23.07,6.2A4,4,0,0,1,336.53,132.11Z"/><path class="cls-3" d="M362.26,188.63H342.72a7,7,0,0,1-7-7V162.33l4.47-16.73a3.94,3.94,0,0,1,2.78-2.78l23.07-6.2a3.93,3.93,0,0,1,3.8,1l16.9,16.88a3.93,3.93,0,0,1,1,3.8l-6.17,23.08a3.93,3.93,0,0,1-2.78,2.78Z"/><path class="cls-3" d="M402.51,188.63h-9.39l-.83-.83a3.94,3.94,0,0,1-1-3.8l6.17-23.08a4,4,0,0,1,2.79-2.79l23.07-6.19a3.93,3.93,0,0,1,3.8,1L444,169.83a3.92,3.92,0,0,1,1.08,3.49A66.54,66.54,0,0,1,402.51,188.63Z"/><path class="cls-3" d="M393.86,147.25l-16.77-16.76a3.93,3.93,0,0,1-1-3.8l6.12-22.89A4,4,0,0,1,385,101l22.9-6.15a4,4,0,0,1,3.8,1l16.77,16.76a3.93,3.93,0,0,1,1,3.8l-6.12,22.89a4,4,0,0,1-2.79,2.8l-22.89,6.15A4,4,0,0,1,393.86,147.25Z"/><path class="cls-2" d="M489.58,102.26A88,88,0,0,0,479.73,77a21.13,21.13,0,0,0,9.94-5.58L509.39,51.7A27.92,27.92,0,0,0,469.9,12.21L450.17,31.93a21.14,21.14,0,0,0-5.82,11,88.17,88.17,0,0,0-28.28-9.32A45.48,45.48,0,0,0,372.18.05H279.09a45.46,45.46,0,0,0,45.46,45.47h32.08A89.1,89.1,0,0,0,318.32,93.6,45.47,45.47,0,0,0,274.21,139v64.09A45.46,45.46,0,0,0,313.83,180V196.4a14.09,14.09,0,0,0,14.1,14.09h16.12a45.43,45.43,0,0,0-23,39.51h64.08a45.46,45.46,0,0,0,45.44-44,89.22,89.22,0,0,0,48.09-38.19V194a45.46,45.46,0,0,0,45.46,45.47V146.4A45.47,45.47,0,0,0,489.58,102.26ZM456.41,175.2a75.64,75.64,0,0,1-53.65,22.22H333.57a6.66,6.66,0,0,1-6.67-6.67V121.56A75.86,75.86,0,0,1,452.28,64.09c1.42,1.22,2.8,2.5,4.13,3.82s2.5,2.6,3.68,4c0,0,0,0,0,0a75.88,75.88,0,0,1-3.71,103.29Z"/></g></g></svg>